# xmcd
# 
# Track frame offsets:
#     182
#     20582
#     33135
#     45510
#     60457
#     75750
#     85695
#     99487
#     107412
#     118775
#     131285
#     168697
#     181747
#     195580
#     202442
#     227695
# 
# Disc length: 3285
# 
# Revision: 35
# Processed by: cddbd v1.5.2PL0 Copyright (c) Steve Scherf et al.
# Submitted via: fre:ac v1.0.31
# 
DISCID=c00cd310
DTITLE=Original Soundtrack - The Rocky Horror Picture Show [Original Soundtrack]
DYEAR=1975
DGENRE=Soundtrack
TTITLE0=Science Fiction--Double Feature
TTITLE1=Dammit Janet
TTITLE2=Over At The Frankenstein Place
TTITLE3=Time Warp
TTITLE4=Sweet Transvestite
TTITLE5=I Can Make You A Man
TTITLE6=Hot Patootie - Bless My Soul
TTITLE7=I Can Make You A Man (Reprise)
TTITLE8=Touch-A, Touch-A, Touch-A, Touch Me
TTITLE9=Eddie
TTITLE10=Rose Tint My World (Floor Show, Fanfare, Don't Dream It, Wild And Untamed Thing)
TTITLE11=I'm Going Home
TTITLE12=Super Heroes
TTITLE13=Science Fiction--Double Feature (Reprise)
TTITLE14=Time Warp (1989 Remix - Extended Version)
TTITLE15=Time Warp (Music - 1 =Background Track and U Mix)
EXTD=
EXTT0=
EXTT1=
EXTT2=
EXTT3=
EXTT4=
EXTT5=
EXTT6=
EXTT7=
EXTT8=
EXTT9=
EXTT10=
EXTT11=
EXTT12=
EXTT13=
EXTT14=
EXTT15=
PLAYORDER=
